HIERARCHY
ROOT Hips
{
	OFFSET -0.001795 -0.223333 0.028219
	CHANNELS 6 Xposition Yposition Zposition Zrotation Yrotation Xrotation 
	JOINT LeftUpLeg
	{
		OFFSET 0.069520 -0.091406 -0.006815
		CHANNELS 3 Zrotation Yrotation Xrotation
		JOINT LeftLeg
		{
			OFFSET 0.034277 -0.375199 -0.004496
			CHANNELS 3 Zrotation Yrotation Xrotation
			JOINT LeftFoot
			{
				OFFSET -0.013596 -0.397961 -0.043693
				CHANNELS 3 Zrotation Yrotation Xrotation
				JOINT LeftToe
				{
					OFFSET 0.026358 -0.055791 0.119288
					CHANNELS 3 Zrotation Yrotation Xrotation
					End Site
					{
						OFFSET 0.000000 0.000000 0.000000
					}
				}
			}
		}
	}
	JOINT RightUpLeg
	{
		OFFSET -0.067670 -0.090522 -0.004320
		CHANNELS 3 Zrotation Yrotation Xrotation
		JOINT RightLeg
		{
			OFFSET -0.038290 -0.382569 -0.008850
			CHANNELS 3 Zrotation Yrotation Xrotation
			JOINT RightFoot
			{
				OFFSET 0.015774 -0.398415 -0.042312
				CHANNELS 3 Zrotation Yrotation Xrotation
				JOINT RightToe
				{
					OFFSET -0.025372 -0.048144 0.123348
					CHANNELS 3 Zrotation Yrotation Xrotation
					End Site
					{
						OFFSET 0.000000 0.000000 0.000000
					}
				}
			}
		}
	}
	JOINT Spine
	{
		OFFSET -0.002533 0.108963 -0.026696
		CHANNELS 3 Zrotation Yrotation Xrotation
		JOINT Spine1
		{
			OFFSET 0.005487 0.135180 0.001092
			CHANNELS 3 Zrotation Yrotation Xrotation
			JOINT Spine2
			{
				OFFSET 0.001457 0.052922 0.025425
				CHANNELS 3 Zrotation Yrotation Xrotation
				JOINT Neck
				{
					OFFSET -0.002778 0.213870 -0.042857
					CHANNELS 3 Zrotation Yrotation Xrotation
					JOINT Head
					{
						OFFSET 0.005152 0.064970 0.051349
						CHANNELS 3 Zrotation Yrotation Xrotation
						End Site
						{
							OFFSET 0.000000 0.000000 0.000000
						}
					}
				}
				JOINT LeftShoulder
				{
					OFFSET 0.078845 0.121749 -0.034090
					CHANNELS 3 Zrotation Yrotation Xrotation
					JOINT LeftArm
					{
						OFFSET 0.090977 0.030469 -0.008868
						CHANNELS 3 Zrotation Yrotation Xrotation
						JOINT LeftForeArm
						{
							OFFSET 0.259612 -0.012772 -0.027456
							CHANNELS 3 Zrotation Yrotation Xrotation
							JOINT LeftHand
							{
								OFFSET 0.249234 0.008986 -0.001171
								CHANNELS 3 Zrotation Yrotation Xrotation
								End Site
								{
									OFFSET 0.000000 0.000000 0.000000
								}
							}
						}
					}
				}
				JOINT RightShoulder
				{
					OFFSET -0.081759 0.118833 -0.038615
					CHANNELS 3 Zrotation Yrotation Xrotation
					JOINT RightArm
					{
						OFFSET -0.096012 0.032551 -0.009143
						CHANNELS 3 Zrotation Yrotation Xrotation
						JOINT RightForeArm
						{
							OFFSET -0.253742 -0.013329 -0.021401
							CHANNELS 3 Zrotation Yrotation Xrotation
							JOINT RightHand
							{
								OFFSET -0.255298 0.007772 -0.005559
								CHANNELS 3 Zrotation Yrotation Xrotation
								End Site
								{
									OFFSET 0.000000 0.000000 0.000000
								}
							}
						}
					}
				}
			}
		}
	}
}
MOTION
Frames: 13
Frame Time: 0.050000
0.000000 0.960399 0.000000 -0.308831 1.046075 2.161147 4.753676 -0.197669 -2.145848 -0.957350 0.177344 -2.930355 0.325000 6.944986 17.739657 0.000000 0.000000 0.000000 -2.786743 0.240063 -2.191800 -1.416243 0.118414 -0.647935 -3.343271 -12.215979 18.385863 0.000000 0.000000 0.000000 1.743663 -0.044989 0.322621 -1.158964 0.568540 -0.911189 -1.188183 0.787748 5.070729 2.592712 -0.472025 -14.117092 0.000000 0.000000 0.000000 -23.637684 -9.855496 2.988736 -51.072720 -7.796920 -2.733061 -6.247908 -20.480415 1.846447 0.000000 0.000000 0.000000 21.428936 6.633023 2.244554 56.300408 3.639502 -3.926054 4.793699 17.675523 1.260772 0.000000 0.000000 0.000000 
-0.000184 0.958506 0.000821 -0.307492 1.429447 2.695743 4.442245 -0.206996 -2.166901 -0.350885 0.158480 -3.933310 0.220231 6.754793 17.394143 0.000000 0.000000 0.000000 -3.248675 0.260147 -2.400894 -0.715848 0.056063 -0.464512 -3.123474 -11.508141 16.611627 0.000000 0.000000 0.000000 1.354923 0.003909 -0.526329 -1.134431 0.547620 -0.462978 -1.017517 0.768234 4.722138 2.590344 -0.271621 -15.881753 0.000000 0.000000 0.000000 -23.856804 -9.910473 2.954486 -51.479184 -8.262664 -2.506003 -6.210424 -21.001277 1.881524 0.000000 0.000000 0.000000 21.123405 6.423634 2.155262 56.715291 3.646400 -3.908449 5.784146 18.404815 1.463335 0.000000 0.000000 0.000000 
-0.000313 0.957996 0.001681 -0.191070 1.511059 2.857960 4.075086 -0.238668 -2.724887 0.094736 0.101063 -3.184074 0.274323 6.768465 17.105120 0.000000 0.000000 0.000000 -3.187762 0.271984 -2.558444 -0.892555 0.088085 -0.174592 -3.345036 -11.772365 15.977050 0.000000 0.000000 0.000000 1.274461 0.009578 -0.631208 -1.224268 0.617807 -1.916246 -1.203722 0.491931 5.663541 2.253650 -0.142586 -15.424351 0.000000 0.000000 0.000000 -23.434510 -9.383434 2.759457 -51.655133 -8.695807 -2.447767 -6.173767 -20.087551 1.805119 0.000000 0.000000 0.000000 21.700455 7.877912 2.971172 56.022721 3.397183 -4.070756 5.595070 18.731567 1.461437 0.000000 0.000000 0.000000 
-0.000461 0.957552 0.002739 -0.343521 1.708415 3.217186 4.314269 -0.260220 -3.036390 0.014934 0.110144 -3.271621 0.225847 6.681920 16.952340 0.000000 0.000000 0.000000 -3.097531 0.305880 -3.000530 -0.658633 0.068180 -0.067961 -3.604963 -12.221753 16.209285 0.000000 0.000000 0.000000 0.942313 0.049978 -1.412121 -1.333151 0.643679 -0.656198 -0.518772 -0.274946 4.276125 1.947880 -0.118198 -14.351908 0.000000 0.000000 0.000000 -23.531195 -9.156985 2.832162 -51.911061 -8.460508 -2.486438 -5.903565 -19.996625 1.762338 0.000000 0.000000 0.000000 21.454201 8.400871 2.971961 55.639932 3.110402 -3.978507 6.141591 19.216655 1.556696 0.000000 0.000000 0.000000 
-0.000668 0.957509 0.003880 -0.349687 1.560453 2.846023 3.984300 -0.230482 -2.571433 0.613368 0.061121 -3.194033 0.309129 6.762851 16.862886 0.000000 0.000000 0.000000 -2.871505 0.261382 -2.435752 -0.912957 0.088258 -0.219768 -3.683821 -12.353492 16.019814 0.000000 0.000000 0.000000 0.805306 0.043836 -1.238458 -1.356712 0.661341 -0.969300 -0.497058 -0.453857 4.427755 1.891678 -0.154123 -13.873521 0.000000 0.000000 0.000000 -23.744825 -9.228589 2.967379 -51.560782 -8.589137 -2.458212 -6.362429 -19.543278 1.807041 0.000000 0.000000 0.000000 21.488126 8.280559 2.822442 55.518103 3.436921 -3.821764 7.013372 20.492402 1.809078 0.000000 0.000000 0.000000 
-0.000841 0.957247 0.004870 -0.397777 1.260637 2.717040 3.994765 -0.210087 -2.263398 0.681258 0.058826 -3.279838 0.474414 6.943613 16.793532 0.000000 0.000000 0.000000 -2.771874 0.253499 -2.330421 -0.918243 0.092913 -0.122094 -3.692566 -12.380733 15.804611 0.000000 0.000000 0.000000 0.607900 0.044958 -1.223370 -1.286693 0.623209 -0.681824 -0.251718 -0.702076 3.920512 1.824547 -0.170421 -13.631553 0.000000 0.000000 0.000000 -23.981828 -9.005260 2.966554 -51.344876 -8.116802 -2.642206 -6.153654 -19.604912 1.786363 0.000000 0.000000 0.000000 20.930660 8.880513 3.007307 55.863994 3.971146 -3.519342 7.182785 21.622312 1.931931 0.000000 0.000000 0.000000 
-0.000999 0.957070 0.005461 -0.491845 0.711874 2.602903 3.971198 -0.194101 -2.065660 0.868726 0.038744 -3.168018 0.781334 7.301854 16.738470 0.000000 0.000000 0.000000 -2.709903 0.245043 -2.203405 -0.861125 0.090377 -0.028210 -3.422966 -11.906661 15.238018 0.000000 0.000000 0.000000 0.599985 0.038458 -1.065654 -1.413862 0.683045 -0.734435 -0.163910 -0.688395 3.779850 2.005520 -0.306670 -13.657437 0.000000 0.000000 0.000000 -23.755579 -8.350711 2.668699 -51.194124 -7.464689 -2.922270 -6.721000 -20.170542 1.947413 0.000000 0.000000 0.000000 20.949840 8.838969 2.887809 55.729217 4.295812 -3.330363 7.326271 22.809853 2.066191 0.000000 0.000000 0.000000 
-0.001131 0.956820 0.005805 -0.656015 0.313548 2.690434 4.136078 -0.195866 -2.128872 0.873948 0.033173 -3.059538 1.024454 7.583071 16.662418 0.000000 0.000000 0.000000 -2.656365 0.262682 -2.407869 -0.729530 0.085498 0.182009 -3.143991 -11.423552 14.922413 0.000000 0.000000 0.000000 0.645742 0.041023 -1.127441 -1.513278 0.726966 -0.596818 -0.166211 -0.682152 3.337227 2.146690 -0.413583 -13.580835 0.000000 0.000000 0.000000 -23.392393 -8.050029 2.541374 -51.076737 -6.753759 -3.185051 -7.199376 -20.518657 2.070652 0.000000 0.000000 0.000000 20.545482 8.939759 2.872558 55.999774 4.516727 -3.185740 7.965509 23.770115 2.273646 0.000000 0.000000 0.000000 
-0.001264 0.956747 0.006022 -0.788733 -0.145302 2.735947 4.256871 -0.196607 -2.198684 0.886683 0.022642 -2.850775 1.288564 7.900803 16.636358 0.000000 0.000000 0.000000 -2.600785 0.280992 -2.622033 -0.615499 0.083683 0.424653 -2.925987 -11.065038 14.699521 0.000000 0.000000 0.000000 0.734958 0.040268 -1.121514 -1.617730 0.776027 -0.667457 -0.091303 -0.459334 3.209392 2.238686 -0.502316 -13.250456 0.000000 0.000000 0.000000 -23.424689 -7.859388 2.433236 -50.698144 -6.245727 -3.363456 -7.749361 -20.817907 2.201859 0.000000 0.000000 0.000000 20.628138 8.892991 2.830741 55.530974 4.672687 -3.071382 8.811718 24.436785 2.509852 0.000000 0.000000 0.000000 
-0.001367 0.956610 0.006232 -0.919482 -0.592325 2.911254 4.209433 -0.202391 -2.336072 1.187634 -0.007000 -2.774115 1.555377 8.231395 16.639997 0.000000 0.000000 0.000000 -2.427037 0.310524 -2.977925 -0.533886 0.079372 0.536842 -3.021638 -11.299913 14.724661 0.000000 0.000000 0.000000 0.973086 0.051768 -1.395421 -1.861445 0.887861 -0.417218 -0.037989 -0.349341 2.984472 2.117551 -0.429206 -13.305203 0.000000 0.000000 0.000000 -23.373274 -7.672040 2.359270 -50.594129 -6.064860 -3.418197 -7.985724 -21.086136 2.278149 0.000000 0.000000 0.000000 20.378086 8.967245 2.825756 55.492213 4.980240 -2.893399 9.390741 24.880455 2.668147 0.000000 0.000000 0.000000 
-0.001382 0.956379 0.006385 -0.934854 -0.920304 3.102192 4.293927 -0.211696 -2.525513 1.035841 0.001355 -2.682700 1.749914 8.464579 16.618772 0.000000 0.000000 0.000000 -2.478848 0.346523 -3.404596 -0.563799 0.088841 0.681663 -2.805823 -11.017689 14.966964 0.000000 0.000000 0.000000 1.071993 0.061493 -1.605448 -2.071294 0.985849 -0.221319 -0.053563 -0.173072 2.676937 1.928468 -0.335298 -12.954111 0.000000 0.000000 0.000000 -23.595948 -7.703608 2.359110 -50.014643 -5.675768 -3.506671 -8.194770 -21.503879 2.361728 0.000000 0.000000 0.000000 20.367541 9.068726 2.874367 55.143784 5.229200 -2.725730 10.587024 25.195058 2.948125 0.000000 0.000000 0.000000 
-0.001304 0.956264 0.006457 -0.975096 -1.019586 3.387813 4.451771 -0.227405 -2.801239 0.819728 0.020933 -2.707227 1.817330 8.550176 16.628160 0.000000 0.000000 0.000000 -2.307842 0.383022 -3.842662 -0.822427 0.126662 0.888855 -2.778252 -10.976057 14.926343 0.000000 0.000000 0.000000 1.251828 0.085079 -2.090079 -2.244546 1.066968 0.096609 -0.159962 -0.051088 2.483389 1.749895 -0.234031 -12.694853 0.000000 0.000000 0.000000 -23.985095 -7.724191 2.326548 -49.600479 -5.554432 -3.500376 -8.018965 -21.646608 2.340145 0.000000 0.000000 0.000000 20.520533 9.125192 2.925769 54.913471 5.520807 -2.564112 11.434031 25.606441 3.182150 0.000000 0.000000 0.000000 
-0.001073 0.956099 0.006368 -1.031917 -1.080718 3.580563 4.476821 -0.235798 -2.935632 0.855377 0.022896 -2.829443 1.866464 8.609746 16.615151 0.000000 0.000000 0.000000 -2.203584 0.412687 -4.193415 -0.954456 0.146401 0.997138 -2.777680 -11.026654 15.136495 0.000000 0.000000 0.000000 1.462870 0.095919 -2.307398 -2.287869 1.087335 0.338966 -0.383128 0.106992 2.087570 1.767040 -0.246898 -12.429332 0.000000 0.000000 0.000000 -24.147830 -7.798444 2.286806 -49.263797 -5.479654 -3.449589 -8.170266 -21.873421 2.383687 0.000000 0.000000 0.000000 20.385179 9.143205 2.980132 54.872075 5.965130 -2.330504 12.635874 26.121920 3.518625 0.000000 0.000000 0.000000 
